<?xml version="1.0" encoding="UTF-8"?>
<svg id="Layer_2" data-name="Layer 2" xmlns="http://www.w3.org/2000/svg" viewBox="0 0 35.41 17.06">
  <defs>
    <style>
      .cls-1 {
        fill: #4c3335;
      }

      .cls-1, .cls-2 {
        stroke-width: 0px;
      }

      .cls-2 {
        fill: #fff;
      }
    </style>
  </defs>
  <g id="_ÎÓÈ_1" data-name="—ÎÓÈ_1">
    <g>
      <path class="cls-1" d="M20.47,1.87c.35-.05.7-.14,1.05-.15.39-.02.79.03,1.18.05.2,0,3.66.02,3.86.02.48.02.95.04,1.43.05.43.01.86.02,1.29.01.37,0,.73-.04,1.09-.07.05,0,.11-.03.13-.07.12-.18.22-.23.45-.18.22.04.45.09.71.14-.01-.15-.04-.33-.04-.51,0-.23,0-.45.04-.68.01-.09.1-.18.18-.23.22-.14.45-.26.72-.24.28.02.56.04.83.11.29.08.61.09.87.3.11.09.29.07.43.13.17.08.33.2.48.32.06.05.1.14.12.22.13.47.09.93-.05,1.39-.07.21-.19.39-.29.59-.16.31-.34.61-.5.92-.24.47-.46.95-.58,1.47-.05.22-.16.42-.19.63-.1.64-.07,1.27.05,1.91.07.36.09.73.15,1.09.03.19.08.37.12.56.05.28.09.55.13.83.04.29.04.59.12.87.08.27.23.51.35.77.05.11.08.22.15.32.17.27.36.52.52.79.1.16.19.34.14.54-.01.07,0,.15,0,.17-.16.03-.28.06-.4.08-.03,0-.05.01-.08.01-.32,0-.65-.03-.97-.03-.32,0-.64.02-.96.03-.24,0-.49,0-.73.03-.28.03-.49-.1-.64-.3-.06-.08-.06-.22-.06-.33,0-.16,0-.32,0-.47,0-.1-.03-.14-.13-.14-.28,0-.56-.02-.84-.01-.11,0-.23.04-.23.22,0,.24-.02.48-.02.73,0,.22-.15.43-.37.47-.29.05-.59.1-.89.12-.24.01-.49-.03-.73-.04-.19,0-.38-.01-.56,0-.39.03-.77.08-1.16.1-.57.03-4.41.05-4.98.07-1.03.02-2.06.03-3.09.04-.26,0-.52.02-.79.01-.45-.01-7.36-.05-7.81-.06-.3,0-.6.02-.9.02-.24,0-.49-.05-.73-.05-.32,0-.63.04-.95.07-.24.02-.48.06-.73.07-.27,0-.55-.04-.82-.04-.25,0-.5,0-.74,0-.16,0-.31,0-.47,0-.18,0-.28-.13-.39-.26-.03-.04-.1-.04-.15-.06,0,.06,0,.11,0,.17.07.31.14.62.2.94.02.09,0,.18,0,.28.03.53-.27.88-.66,1.16-.29.21-.62.38-.99.32-.29-.05-.58-.15-.86-.24-.2-.07-.4-.16-.59-.24-.4-.17-.71-.43-.94-.81-.22-.37-.3-.76-.23-1.16.04-.25.2-.48.3-.73.04-.1.06-.22.1-.32.08-.26.14-.52.25-.77.17-.38.24-.78.26-1.19.04-.69.11-1.37.12-2.06,0-.78-.04-1.57-.07-2.35,0-.27,0-.54-.04-.8-.04-.29-.11-.57-.18-.85-.04-.18-.08-.37-.15-.55-.15-.4-.32-.79-.48-1.19-.12-.32-.18-.65-.02-.98.1-.21.27-.37.47-.47.49-.26,1.02-.25,1.55-.23.46.02.92-.02,1.37-.12.51-.11,1.02-.2,1.53-.28.26-.04.51.02.68.25.12.16.29.16.46.14.56-.06,1.13-.15,1.69-.19.72-.05,1.45-.05,2.18-.1.6-.04,7.65-.11,8.25-.16.26-.02.53-.01.8,0,.38,0,.77.02,1.15.04.2,0,.21.02.24.2ZM30.82,1.79q.1.22-.13.26s-.05.02-.08.03c-.19.03-.37.09-.56.08-.39-.01-.78-.06-1.17-.08-.55-.03-1.09-.04-1.64-.06-.49-.01-4.25-.02-4.74-.04-.57-.02-1.12.06-1.67.19-.39.09-.69,0-.99-.23-.05-.04-.14-.07-.2-.07-.51,0-1.02,0-1.54.02-.56.02-7.59.03-8.15.07-.56.04-1.12.1-1.68.16-.28.03-.56.05-.83.11-.43.11-.86.24-1.28.37-.05.01-.08.08-.12.12,0,.02.02.04.02.06-.22-.02-.43-.03-.64-.05-.12-.01-.14-.05-.13-.14.15.03.31.05.44.07-.1-.16-.19-.33-.29-.49,0,0,0-.02-.02-.03-.12-.07-.13-.27-.31-.25-.13.01-.27.04-.4.06-.25.05-.51.1-.76.16-.24.05-.48.09-.71.17-.24.09-.47.09-.72.09-.45,0-.89-.11-1.34,0-.22.05-.45.03-.63.25-.19.24-.38.47-.3.78.09.33.22.64.34.96.11.28.23.55.33.83.08.22.12.46.18.69.05.19.14.37.15.56.04.64.05,1.27.07,1.91.02.53.04,1.05.05,1.58,0,.11-.03.22-.03.34-.01.33,0,.67-.03,1-.03.44-.16.86-.31,1.27-.18.5-.35,1.01-.54,1.51-.07.19-.18.36-.27.54.01,0,.02,0,.03.01.22-.16.43-.32.65-.48-.04,0-.08-.02-.13-.03.02-.03.03-.05.04-.05.31-.1.63-.19.95-.28.07-.02.16-.03.21,0,.15.1.3.05.45.03.38-.05.77-.08,1.15-.14.33-.05.52.14.72.35.09.1.2.18.34.18.22.01.44.02.66.04.39.02.79.08,1.18.06.62-.02,1.23-.09,1.85-.13.13,0,.26,0,.39,0,.24.02.47.05.71.05.25.01.51,0,.76,0,.39,0,7.24.01,7.64.02.15,0,.3,0,.45.01.48.07.95.05,1.43,0,.49-.05.98-.12,1.47-.13.57-.01,1.15.02,1.72.04.1,0,.21,0,.31,0,.51-.03,4.29-.08,4.81-.1.39-.02.78-.02,1.17-.04.24-.01.48-.03.71-.07.2-.03.25-.16.16-.33-.04-.06-.06-.13-.1-.18-.03-.04-.09-.05-.14-.08-.04-.02-.08-.03-.13-.04.02-.04.05-.08.05-.12.01-.09.02-.19.01-.28,0-.04-.06-.11-.05-.12.06-.05.16-.12.18-.11.12.12.19-.02.28-.05.1-.03.19-.07.29-.09.08-.02.17,0,.26-.02.29-.03.58-.07.87-.1.28-.03.56-.04.85-.05.11,0,.22.04.33.06-.02.05-.03.11-.04.16.07.07.15.14.22.21-.06.03-.09.05-.13.07.06.09.14.17-.03.21-.03,0-.05.04-.06.07-.05.12-.09.25-.12.35.8.03,1.6.05,2.44.08-.17-.34-.32-.67-.48-.99-.26.1-.48.05-.51-.13.16.03.32.05.48.08-.02-.05-.04-.1-.07-.15-.05-.1-.12-.2-.17-.3-.06-.12-.1-.26-.18-.38-.1-.16-.27,0-.4-.05,0,0-.02,0-.04-.02.04-.26.26-.08.35-.13-.11-.52-.21-1.04-.32-1.56-.05-.26-.13-.53-.16-.79-.04-.4-.05-.8-.09-1.2-.01-.11-.08-.22-.12-.33-.02-.05-.03-.09-.03-.14-.03-.25-.04-.51-.09-.76-.08-.47-.09-.94.13-1.38.07-.14.1-.3.16-.46-.12,0-.27.09-.26-.15.1.03.18.06.28.09.03-.07.06-.15.11-.24h-.28s-.02-.09-.04-.15c.1,0,.21-.03.25,0,.16.13.19-.02.26-.09.23-.24.39-.52.54-.82.05-.09.08-.19.14-.27.31-.48.62-.95.61-1.56-.11.19-.21.38-.29.58-.07.17-.19.28-.37.31-.16.03-.31.04-.48-.01-.2-.06-.44,0-.66-.01-.14,0-.27-.05-.4-.08-.14-.03-.28-.08-.42-.09-.12,0-.24.04-.37.05-.2.02-.43-.11-.45-.25,0-.05,0-.11-.02-.15-.15-.21-.57-.35-.83-.26ZM2.59,15.54c-.06.01-.09.01-.12.02-.33.12-.59-.01-.64-.36-.02-.13.02-.27.02-.4,0-.17-.01-.34-.02-.48-.12.04-.21.09-.31.1-.27.02-.51.13-.75.24.27-.03.53-.05.8-.08-.02.16-.03.16-.2.19-.29.04-.57.08-.86.11,0,.02,0,.03,0,.05.25-.02.5-.05.76-.06.04,0,.07.02.11.03-.02.03-.04.08-.07.09-.1.03-.2.04-.3.05-.2.02-.4.04-.61.06,0,.02,0,.03,0,.05h1.16s.01.03.02.04c-.04.03-.08.07-.12.08-.08.02-.17.02-.25.02-.26.01-.52.02-.78.03,0,.02,0,.04,0,.05.36.12.76.01,1.13.08,0,.03,0,.05,0,.08l-.58.07s0,.01,0,.02c.19.02.38.03.57.04,0,.01.01.03.02.04-.04.02-.07.07-.11.07-.27,0-.53,0-.8,0,.14.05.28.07.41.07.25.01.51.02.76.03.06,0,.11.05.16.07-.06.03-.11.08-.17.08-.18,0-.36,0-.55-.01-.09,0-.17,0-.26,0,0,.02,0,.05,0,.07.4.02.8.04,1.24.06-.16.2-.34.11-.5.13-.17.02-.33,0-.53,0,.14.14.36.21.64.24.09.01.14-.02.17-.09,0,0,.03-.01.04-.01.23-.02.45-.02.68-.05.24-.04.52.03.72-.2-.28.02-.54.03-.8.06-.11.01-.13-.03-.16-.13.04,0,.07-.02.1-.02.23-.01.46-.01.68-.04.13-.01.28-.02.37-.19-.24.04-.46.07-.68.11,0-.03-.03-.08-.05-.15.28-.05.54-.09.8-.13,0-.02,0-.04,0-.05-.04,0-.09-.01-.13,0-.15.02-.31.04-.46.08-.23.07-.1-.14-.16-.21-.05-.06.03-.1.1-.11.12-.02.24-.05.36-.08v-.05c-.2.03-.4.05-.59.08,0-.02-.02-.03-.03-.05.07-.05.13-.11.2-.17-.17-.04-.35-.09-.52-.13.02.2.04.37.06.55ZM33.9,1.63c.04-.17.08-.18.27-.13.22.05.45.09.7.13-.04-.03-.05-.05-.07-.06-.29-.06-.58-.11-.87-.18-.06-.01-.12-.06-.18-.09.06-.02.13-.08.18-.07.33.05.66.12.99.18-.04-.06-.1-.12-.17-.13-.29-.07-.58-.12-.87-.18-.05-.01-.08-.07-.13-.11.05-.02.1-.07.15-.06.2.03.4.07.6.11-.06-.04-.13-.07-.19-.09-.2-.04-.4-.07-.6-.12-.04-.01-.06-.09-.1-.14.05,0,.09-.02.14-.02.03,0,.06.01.09.02,0-.01,0-.03,0-.04-.36-.15-.74-.13-1.11-.15.03.04.06.07.08.1-.03.02-.06.05-.09.05-.05.01-.11,0-.14.02-.13.09-.22.06-.26-.08-.36.13-.28.38-.08.54.17.14.37.15.56.15.05-.11.07-.22.13-.3.08-.13.33-.17.41-.08.11.13.32.22.18.45,0,.01.01.03.01.05,0,.1,0,.2-.02.3-.03.17-.07.34-.09.51,0,.05.05.14.09.15.11.03.23.02.37.03-.06-.21.03-.24.19-.21.14.03.28.04.42.05.04,0,.08-.02.13-.03,0-.02,0-.04,0-.06-.17-.02-.34-.03-.51-.06-.04,0-.07-.05-.11-.08.04-.03.07-.08.11-.09.05-.02.11,0,.16,0-.04-.02-.09-.02-.12-.04-.04-.02-.08-.05-.13-.08.05-.03.09-.07.14-.08.08-.01.16,0,.24,0,0,0,0-.02,0-.03-.16-.02-.31-.04-.49-.06ZM2.62,14.77s0,.04,0,.06c.04,0,.07,0,.11.01.35.07.69.15.99.36.2.14.31.41.24.61-.19.49-.52.83-1.05.93-.2.04-.4.03-.64.04.28.14.53.15.77.04.22-.1.43-.22.62-.37.47-.39.5-.85.22-1.35-.07-.13-.21-.29-.33-.31-.3-.04-.61-.01-.92-.01ZM32.91,2.22s0-.04.01-.06q.26-.08.27-.14c-.23,0-.3-.06-.37-.28.09-.03.18-.05.28-.08-.14-.02-.28-.02-.41,0-.07.01-.17.06-.18.1-.02.2-.18.25-.33.3.08.03.15.09.22.09.19,0,.36.01.52.13.06.05.15.07.24.11v-.12c-.09-.02-.18-.03-.26-.05ZM32.2,12.63s.07.06.09.08c.25.28.25.4-.03.66-.09.08-.19.14-.28.22-.09.07-.1.15.04.18.12.02.23.04.35.04.29,0,.58,0,.87-.01.14,0,.29,0,.43,0,0-.02,0-.03,0-.05-.01,0-.03-.02-.04-.02-.32.01-.63.03-.95.03-.12,0-.24-.02-.34-.07-.1-.05-.17-.15-.04-.25.16-.13.21-.31.26-.5.05-.19.04-.24-.17-.27-.06,0-.11-.02-.2-.03ZM31.75,13.47c.18-.12.32-.2.46-.3.07-.05.12-.14.02-.2-.12-.07-.26-.12-.44-.2-.01.25-.03.45-.04.7ZM3.76,14.17c-.08,0-.16.02-.22.02.02.05.05.11.08.19h-.19v.13c.18.08.33.15.5.23.04-.22-.05-.4-.17-.56ZM2.79,14.35c-.15.02-.27.03-.4.05-.06,0-.12.01-.18.02,0-.06.01-.12.02-.19-.08.01-.17.02-.22.03.02.17.04.33.06.49.12-.04.27-.09.42-.15-.03-.24.21-.13.31-.25ZM3.87,13.94c-.2-.08-.64-.09-1.64.12.55-.04,1.1-.08,1.64-.12ZM2.1,15.2c.09.17.21.14.34.12-.01-.1-.02-.19-.03-.32-.12.08-.21.14-.31.21ZM35.08,1.21c.05-.19-.14-.4-.39-.45.13.14.26.29.39.45ZM30.18,12.98c-.23.13-.23.17,0,.39v-.39ZM32.41,1.65s.01-.03.02-.04c-.14-.07-.28-.14-.42-.21.1.14.21.28.4.25ZM32.66.24c-.12-.07-.44.02-.55.15.17-.05.36-.1.55-.15Z"/>
      <path class="cls-2" d="M30.82,1.79c.26-.08.69.05.83.26.03.04.01.1.02.15.03.14.25.27.45.25.12,0,.25-.05.37-.05.14,0,.28.06.42.09.13.03.27.07.4.08.22.01.45-.05.66.01.17.05.32.05.48.01.18-.04.3-.14.37-.31.08-.2.18-.39.29-.58,0,.61-.3,1.08-.61,1.56-.05.08-.09.18-.14.27-.15.29-.3.58-.54.82-.08.08-.1.22-.26.09-.05-.04-.15,0-.25,0,.02.06.03.11.04.15h.28c-.04.1-.07.17-.11.24-.09-.03-.18-.05-.28-.09-.02.23.14.15.26.15-.05.16-.09.32-.16.46-.22.45-.2.91-.13,1.38.04.25.06.51.09.76,0,.05.02.1.03.14.04.11.11.21.12.33.04.4.04.8.09,1.2.03.27.1.53.16.79.11.52.21,1.04.32,1.56-.1.06-.32-.13-.35.13.03.01.04.02.04.02.13.06.29-.11.4.05.07.12.11.25.18.38.05.1.11.2.17.3.03.05.05.1.07.15-.17-.03-.32-.05-.48-.08.03.18.25.23.51.13.15.32.31.64.48.99-.84-.03-1.65-.05-2.44-.08.03-.1.07-.23.12-.35.01-.03.04-.06.06-.07.16-.04.09-.12.03-.21.04-.02.08-.04.13-.07-.08-.07-.15-.14-.22-.21.01-.05.03-.1.04-.16-.11-.02-.22-.06-.33-.06-.28,0-.57.02-.85.05-.29.03-.58.07-.87.1-.09,0-.18,0-.26.02-.1.02-.19.06-.29.09-.09.03-.16.16-.28.05-.02-.01-.12.06-.18.11-.01,0,.04.08.05.12,0,.09,0,.19-.01.28,0,.04-.04.08-.05.12.04.01.09.02.13.04.05.02.11.04.14.08.05.05.07.12.1.18.1.16.04.3-.16.33-.23.04-.47.05-.71.07-.39.02-.78.02-1.17.04-.51.03-4.29.07-4.81.1-.1,0-.21,0-.31,0-.57-.01-1.15-.05-1.72-.04-.49.01-.98.08-1.47.13-.48.05-.95.06-1.43,0-.15-.02-.3-.01-.45-.01-.39,0-7.24-.02-7.64-.02-.25,0-.51,0-.76,0-.24,0-.47-.04-.71-.05-.13,0-.26-.01-.39,0-.62.04-1.23.11-1.85.13-.39.01-.79-.04-1.18-.06-.22-.01-.44-.03-.66-.04-.14,0-.24-.08-.34-.18-.19-.21-.39-.4-.72-.35-.38.06-.77.09-1.15.14-.15.02-.3.07-.45-.03-.05-.03-.14-.02-.21,0-.32.09-.63.19-.95.28-.01,0-.02.02-.04.05.05.01.09.02.13.03-.22.16-.43.32-.65.48-.01,0-.02,0-.03-.01.09-.18.2-.36.27-.54.19-.5.35-1.01.54-1.51.15-.41.28-.83.31-1.27.02-.33.01-.66.03-1,0-.11.04-.23.03-.34-.01-.53-.03-1.05-.05-1.58-.02-.64-.03-1.27-.07-1.91-.01-.19-.1-.37-.15-.56-.06-.23-.11-.46-.18-.69-.1-.28-.23-.56-.33-.83-.12-.32-.25-.63-.34-.96-.09-.31.1-.54.3-.78.18-.22.41-.19.63-.25.45-.11.89,0,1.34,0,.24,0,.48,0,.72-.09.23-.08.47-.12.71-.17.25-.06.51-.11.76-.16.13-.03.27-.05.4-.06.18-.02.19.19.31.25,0,0,.01.02.02.03.1.16.19.33.29.49-.13-.02-.28-.05-.44-.07-.01.08.01.12.13.14.21.02.43.04.64.05,0-.02-.02-.04-.02-.06.04-.04.07-.1.12-.12.42-.13.85-.27,1.28-.37.27-.07.55-.08.83-.11.56-.06,1.12-.12,1.68-.16.56-.04,7.59-.06,8.15-.07.51-.01,1.02-.02,1.54-.02.07,0,.15.03.2.07.29.24.6.32.99.23.54-.13,1.1-.21,1.67-.19.49.02,4.25.03,4.74.04.55.02,1.09.03,1.64.06.39.02.78.07,1.17.08.19,0,.37-.05.56-.08.03,0,.05-.02.08-.03q.22-.04.13-.26ZM2.14,13.28c-.16.02-.29.03-.42.06-.26.06-.52.13-.78.2-.03,0-.05.05-.08.08.04,0,.07.03.11.02.27-.05.54-.11.81-.16.12-.02.24-.04.36-.06.03,0,.07-.06.06-.07-.01-.03-.05-.05-.06-.06ZM32.31,11.4s0-.02,0-.02c.07,0,.14,0,.2,0,.03,0,.06-.04.09-.06-.03-.03-.06-.08-.09-.08-.14,0-.29,0-.45,0,.02.13.04.23.06.35.17,0,.33.02.5.02.03,0,.05-.04.08-.06-.02-.03-.04-.07-.07-.08-.11-.02-.22-.04-.33-.05ZM1.47,2.86s-.01-.03-.02-.05c-.09.04-.19.06-.28.11-.26.14-.51.29-.77.43-.1.06-.07.13-.02.17.38-.23.73-.45,1.09-.66ZM2.36,12.99v-.06s-.07-.08-.1-.07c-.37.1-.73.22-1.09.33,0,.03.02.06.03.09.39-.09.78-.19,1.17-.28ZM1.42,3.38s0-.03-.01-.04c-.03,0-.08-.03-.1-.01-.23.11-.45.22-.67.34-.04.02-.08.07-.09.11-.01.04.02.08.03.13.03-.01.08-.02.1-.04.13-.1.26-.2.4-.3.11-.07.23-.13.35-.19ZM2.42,12.67s-.01-.04-.02-.06c-.16-.06-.8.02-.94.13-.02.01-.03.05-.04.07.04.01.07.03.11.03.13-.02.26-.04.39-.07.17-.03.33-.07.5-.1ZM2.51,12.36s0-.04,0-.07c-.07-.01-.15-.04-.22-.03-.21.03-.41.07-.62.12-.03,0-.05.05-.08.07.04.01.07.04.11.04.2-.02.39-.06.59-.09.07-.01.14-.03.21-.05ZM2.57,11.7c-.14-.16-.74-.04-.86.17.28-.06.56-.11.86-.17ZM2.53,12.03c-.06-.06-.1-.12-.13-.11-.27.02-.52.09-.76.22l.02.06c.28-.05.55-.11.87-.17ZM6.24,2.99s0-.05,0-.08c-.15-.02-.3-.04-.46-.04-.1,0-.21,0-.31.02-.03,0-.06.05-.08.08,0,0,.02.06.04.06.27,0,.54-.02.81-.03ZM32.09,11.08c.19,0,.36,0,.54,0,.03,0,.07-.03.1-.05-.03-.03-.06-.08-.09-.09-.14-.02-.29-.01-.43-.03-.13-.02-.16.04-.12.17ZM34.4,2.9c-.24,0-.47,0-.69,0-.01,0-.04.05-.03.06,0,.03.04.07.05.07.22-.02.43-.04.65-.07.01,0,.02-.03.03-.06ZM.7,4.19s.03,0,.05,0c.17-.08.34-.16.5-.25.03-.02.04-.06.06-.09-.03-.01-.06-.05-.08-.04-.16.06-.32.12-.46.2-.04.02-.05.11-.07.17ZM32.5,10.47s.03-.03.04-.05c-.04-.04-.08-.09-.13-.1-.13-.03-.26-.04-.38-.04-.04,0-.08.05-.12.07.03.03.06.09.1.09.16.02.33.02.5.03ZM34.26,3.26s0-.03,0-.05c-.2-.04-.4-.02-.6-.01-.04,0-.07.06-.11.09.04.02.08.07.12.07.15,0,.3-.02.45-.04.05,0,.09-.04.14-.05ZM32.58,10.75s.02-.03.02-.04c-.04-.03-.08-.08-.13-.09-.12-.02-.24-.03-.35-.03-.04,0-.08.04-.12.06.03.03.07.09.1.09.16.01.32,0,.48,0ZM31.58,2.6c-.21-.18-.43-.14-.63-.16-.02,0-.05.05-.07.08.03.02.06.06.09.06.14.03.29.05.43.06.05,0,.1-.02.18-.04ZM32.37,11.64s0,0,0,.01c-.05,0-.1-.01-.14,0-.03.01-.07.06-.07.09,0,.03.05.07.08.08.14.01.28.02.42.02.03,0,.05-.02.08-.03-.02-.03-.03-.07-.06-.08-.1-.04-.2-.06-.3-.09ZM31.55,2.86s0-.05.01-.08c-.15-.12-.34-.14-.52-.15-.03,0-.06.04-.08.07,0,.02.01.08.03.08.19.03.37.05.56.07ZM5.49,3.3h.67c-.17-.19-.6-.18-.67,0ZM.75,4.56s.02.06.03.08c.04,0,.1.03.13.02.13-.05.26-.11.39-.18.02-.01.03-.05.04-.07-.03-.01-.07-.04-.09-.04-.13.03-.25.07-.37.11-.05.02-.09.05-.14.08ZM20.61,2.54s0-.05,0-.07c-.16-.04-.32-.08-.48-.12-.04,0-.08.03-.12.05.03.04.06.12.1.13.17.01.34,0,.5,0ZM1.89,11.49c.23-.03.43-.05.64-.07,0-.02,0-.03.01-.05-.03-.02-.06-.06-.09-.07-.26-.01-.5.06-.56.19ZM32.82,12.31c-.09-.15-.34-.24-.44-.17-.02.01-.04.06-.03.08,0,.03.04.08.06.09.13,0,.26,0,.42,0ZM30.06,11.66c-.12.03-.22.04-.31.08-.03.01-.05.07-.08.1.04.02.08.05.11.05.09,0,.18-.02.27-.05.04-.02.08-.07.11-.11-.04-.03-.08-.05-.11-.07ZM30.19,11.35s-.04.04-.07.06c-.11.02-.22.04-.33.08-.03,0-.05.06-.07.09.03.02.07.06.1.06.11-.01.22-.03.33-.06.03,0,.05-.06.06-.1,0-.04-.02-.09-.03-.13ZM1.42,4.7c-.1.04-.2.07-.29.11-.03.01-.05.08-.05.09.03.03.08.07.11.06.09-.02.17-.05.26-.09.03-.02.05-.07.07-.1-.03-.02-.06-.04-.11-.07ZM2.74,10.76c-.09-.05-.54,0-.58.05-.01.01-.02.04-.02.06.01.02.04.05.05.05.18-.04.37,0,.55-.15ZM32.49,11.85s0,.01,0,.02c-.02,0-.05-.01-.06,0-.04.03-.08.06-.12.09.04.03.07.07.11.08.07.02.15.03.22.04.03,0,.08-.02.09-.04,0-.04,0-.1-.02-.11-.06-.03-.14-.05-.21-.07ZM2.61,11.09s.01-.05.02-.07c-.05-.02-.1-.05-.15-.05-.08,0-.16.03-.24.05-.08.02-.17.05-.25.08,0,.02.01.05.02.07l.6-.08ZM30.83,2.24s0,.04,0,.06c.19,0,.38.02.57.03.02,0,.04-.04.06-.06-.02-.02-.05-.05-.07-.05-.14-.01-.29-.02-.43-.02-.04,0-.08.03-.13.04ZM2.78,10.47c-.07-.08-.3-.06-.54.06.08.12.4.08.54-.06ZM30,11.99q-.37.09-.35.23c.33,0,.39-.04.35-.23ZM6.09,3.54s-.01-.04-.02-.06c-.14,0-.28,0-.42,0-.02,0-.04.05-.06.08.03.02.05.05.08.06.1,0,.2.01.31,0,.04,0,.07-.05.11-.07ZM30.07,11.28s0,.01,0,.02c.04,0,.09,0,.12-.03.02-.01.03-.05.03-.08,0-.02-.03-.06-.04-.06-.11,0-.21,0-.32.02-.03,0-.04.08-.06.13.04.01.08.03.13.03.04,0,.09-.03.13-.04ZM33.72,3.83h0s-.09,0-.13.02c-.04.01-.07.04-.11.06.04.03.07.08.12.08.08,0,.16,0,.24-.02.04,0,.08-.03.12-.05-.04-.03-.08-.07-.12-.1-.03-.01-.07,0-.11,0ZM29.86,11.02c.12-.02.23-.03.34-.06.03,0,.05-.07.07-.1-.04-.01-.07-.04-.11-.04-.05,0-.11.02-.16.02-.15-.02-.14.07-.14.18ZM29.88,12.34c-.1.08-.19.15-.28.21.03.02.08.08.1.07.1-.04.19-.1.28-.15-.03-.03-.05-.06-.1-.13ZM33.84,12.23c.11.13.17.15.45.08-.12-.15-.31-.19-.45-.08ZM33.56,3.44v.05c.11.15.32.17.55.02-.21-.03-.38-.05-.55-.08ZM20.5,2.79s.01-.06.02-.09c-.14-.03-.27-.07-.41-.09-.02,0-.06.04-.07.07,0,.01.03.06.05.06.14.02.28.04.42.05ZM33.79,4.36c-.04-.19-.17-.16-.28-.14-.03,0-.06.05-.08.07.03.03.06.08.09.09.08,0,.17,0,.28-.02ZM32.39,10.1c-.15-.01-.27-.02-.39-.03-.02,0-.05.04-.05.06,0,.03.02.06.04.08.07.05.29,0,.4-.11ZM31.08,3.3c-.04.16.1.24.34.21q-.05-.16-.34-.21ZM6.14,4.22s0-.08,0-.08c-.12-.02-.24-.04-.37-.06,0,0-.03.05-.02.07.01.02.04.05.07.05.1,0,.2.01.31.02ZM1.5,5.1c-.07.02-.12.03-.15.06-.03.03-.04.08-.06.12.05.01.09.04.14.04.03,0,.06-.02.09-.04.03-.03.06-.06.09-.09-.04-.03-.07-.06-.11-.09ZM33.95,12s0,.02.01.03c.04-.02.09-.04.13-.06-.04-.04-.08-.09-.14-.11-.05-.02-.12,0-.17,0-.03,0-.05.06-.07.08.03.02.06.06.1.07.05,0,.09-.02.14-.03ZM31.41,3.18s0-.04,0-.06c-.09-.04-.17-.09-.27-.13-.02,0-.06.06-.09.1.09.04.17.09.26.13.03,0,.07-.02.1-.04ZM20.31,3.11c-.04.05-.07.09-.09.12.09.03.19.07.28.09.02,0,.06-.04.09-.06-.09-.05-.17-.09-.28-.15ZM29.91,10.66s0,.04,0,.07c.04.01.08.05.11.04.08-.02.21.02.22-.13,0-.02-.07-.07-.09-.06-.08.02-.16.05-.24.08ZM30.14,10.37c-.07,0-.13,0-.17,0-.03,0-.07.06-.06.08,0,.03.05.08.07.08.08,0,.17-.02.25-.05.02,0,.04-.05.04-.07,0-.02-.04-.05-.07-.05-.03,0-.06,0-.07,0ZM30.03,10.29c.27,0,.38-.07.32-.22-.1.08-.29,0-.32.22ZM34.54,13.05s.01-.04.02-.06c-.13-.03-.26-.07-.4-.1.02.17.18.22.38.16ZM31.3,3.82c0-.15-.12-.24-.23-.2-.03,0-.05.05-.06.08,0,.02.02.07.04.07.08.02.16.03.25.05ZM5.98,3.81c-.1-.04-.19-.07-.28-.1-.01.01-.03.03-.04.04.03.05.04.11.08.13.08.04.17.09.24-.07ZM6.3,5.47c0-.15-.1-.12-.17-.13-.1,0-.16.02-.15.16.11-.01.21-.02.32-.03ZM34.33,13.25s-.03.03-.05.04c.03.04.04.11.08.13.09.04.18.05.28.07l.02-.07c-.11-.06-.22-.12-.32-.18ZM5.78,4.51c.12-.01.22-.02.32-.03-.02-.03-.03-.09-.05-.1-.1-.04-.21-.1-.26.13ZM31.98,9.87s.04.11.07.11c.08.02.16.01.25,0,0,0,.02-.05,0-.07-.01-.02-.05-.04-.07-.05-.07,0-.14,0-.25,0ZM31.27,4.12s.03-.06.04-.09c-.08-.04-.16-.09-.24-.13-.02.04-.04.08-.06.12.09.03.17.07.26.1ZM5.88,4.63c-.09.22.04.2.13.21.04,0,.08-.03.12-.05-.08-.05-.16-.1-.25-.16ZM31.33,4.43s.03-.04.04-.06c0-.14-.12-.14-.21-.16-.01,0-.03.04-.05.07.07.05.15.1.22.15ZM20.49,3.05s.01-.03.02-.05c-.09-.04-.18-.09-.28-.14,0,.17.07.21.26.19ZM1.6,5.62s.01-.04.02-.06c-.07-.03-.14-.06-.25-.1.02.09.02.18.03.18.06,0,.13,0,.19-.02ZM1.63,5.88s-.08.07-.11.1c.03.03.07.09.09.09.05-.01.09-.06.14-.09-.03-.03-.07-.06-.12-.1Z"/>
      <path class="cls-2" d="M2.59,15.54c-.02-.18-.04-.35-.06-.55.17.04.35.09.52.13-.07.06-.14.11-.2.17,0,.02.02.03.03.05.2-.03.39-.05.59-.08v.05c-.11.03-.23.05-.35.08-.07.01-.15.05-.1.11.06.07-.07.28.16.21.15-.04.3-.06.46-.08.04,0,.09,0,.13,0,0,.02,0,.04,0,.05-.26.04-.52.09-.8.13.02.07.04.12.05.15.23-.04.44-.07.68-.11-.09.17-.24.18-.37.19-.23.02-.45.03-.68.04-.03,0-.06.01-.1.02.02.09.04.14.16.13.26-.03.53-.04.8-.06-.2.24-.48.17-.72.2-.22.03-.45.03-.68.05-.02,0-.04,0-.04.01-.03.08-.08.11-.17.09-.28-.03-.5-.1-.64-.24.2,0,.37.01.53,0,.15-.02.34.07.5-.13-.44-.02-.84-.04-1.24-.06,0-.02,0-.05,0-.07.09,0,.17,0,.26,0,.18,0,.36.02.55.01.06,0,.11-.05.17-.08-.05-.02-.11-.07-.16-.07-.25-.02-.51-.02-.76-.03-.14,0-.28-.02-.41-.07.27,0,.53,0,.8,0,.04,0,.07-.04.11-.07,0-.01-.01-.03-.02-.04-.19-.01-.38-.03-.57-.04,0,0,0-.01,0-.02l.58-.07s0-.05,0-.08c-.37-.07-.76.04-1.13-.08,0-.02,0-.04,0-.05.26,0,.52-.02.78-.03.09,0,.17,0,.25-.02.05-.01.08-.05.12-.08,0-.01-.01-.03-.02-.04H.4s0-.03,0-.05c.2-.02.4-.04.61-.06.1-.01.2-.03.3-.05.03,0,.05-.06.07-.09-.04-.01-.07-.03-.11-.03-.25.02-.5.04-.76.06,0-.02,0-.03,0-.05.29-.04.57-.08.86-.11.17-.02.18-.03.2-.19-.27.03-.54.05-.8.08.24-.12.48-.22.75-.24.1,0,.19-.06.31-.1,0,.14.02.31.02.48,0,.13-.04.27-.02.4.05.35.31.49.64.36.03-.01.06-.01.12-.02Z"/>
      <path class="cls-2" d="M33.9,1.63c.17.02.33.04.49.06,0,0,0,.02,0,.03-.08,0-.17,0-.24,0-.05,0-.09.05-.14.08.04.03.08.06.13.08.04.02.08.01.12.04-.05,0-.11-.01-.16,0-.04.01-.07.06-.11.09.04.03.07.07.11.08.17.02.34.04.51.06,0,.02,0,.04,0,.06-.04,0-.09.03-.13.03-.14-.01-.28-.03-.42-.05-.15-.03-.24,0-.19.21-.14,0-.26,0-.37-.03-.04-.01-.09-.1-.09-.15.02-.17.06-.34.09-.51.02-.1.02-.2.02-.3,0-.02-.02-.04-.01-.05.13-.23-.07-.32-.18-.45-.08-.09-.34-.05-.41.08-.05.09-.08.19-.13.3-.19,0-.39-.01-.56-.15-.2-.16-.28-.41.08-.54.05.14.14.17.26.08.04-.02.1,0,.14-.02.03,0,.06-.04.09-.05-.02-.03-.04-.06-.08-.1.37.02.76,0,1.11.15,0,.01,0,.03,0,.04-.03,0-.06-.02-.09-.02-.05,0-.09.02-.14.02.03.05.05.13.1.14.2.05.4.08.6.12.07.01.14.04.19.09-.2-.04-.4-.08-.6-.11-.05,0-.1.04-.15.06.04.04.08.1.13.11.29.07.58.12.87.18.07.02.13.08.17.13-.33-.06-.66-.13-.99-.18-.06,0-.12.04-.18.07.06.03.12.08.18.09.29.06.58.12.87.18.02,0,.03.02.07.06-.25-.05-.48-.08-.7-.13-.19-.04-.23-.04-.27.13ZM32.89.83c-.18-.03-.33-.06-.52-.1.1.23.35.28.52.1Z"/>
      <path class="cls-2" d="M2.62,14.77c.31,0,.62-.03.92.01.12.02.26.18.33.31.29.5.25.96-.22,1.35-.18.15-.4.27-.62.37-.24.11-.49.1-.77-.04.24-.01.44,0,.64-.04.53-.1.86-.43,1.05-.93.07-.2-.04-.47-.24-.61-.3-.21-.64-.29-.99-.36-.04,0-.07,0-.11-.01,0-.02,0-.04,0-.06Z"/>
      <path class="cls-2" d="M32.91,2.22c.08.02.16.03.26.05v.12c-.09-.04-.18-.06-.24-.11-.16-.12-.33-.13-.52-.13-.07,0-.14-.06-.22-.09.16-.06.31-.1.33-.3,0-.04.11-.09.18-.1.13-.02.27-.02.41,0-.09.03-.18.05-.28.08.07.23.14.28.37.28q0,.06-.27.14s0,.04-.01.06Z"/>
      <path class="cls-2" d="M32.2,12.63c.08.01.14.02.2.03.2.03.22.08.17.27-.05.19-.1.37-.26.5-.13.11-.05.21.04.25.1.05.23.07.34.07.32,0,.63-.02.95-.03.01,0,.03.01.04.02,0,.02,0,.03,0,.05-.14,0-.29,0-.43,0-.29,0-.58.01-.87.01-.12,0-.24-.01-.35-.04-.13-.03-.12-.11-.04-.18.09-.08.19-.14.28-.22.27-.26.28-.38.03-.66-.02-.02-.05-.04-.09-.08Z"/>
      <path class="cls-2" d="M31.75,13.47c.01-.25.03-.45.04-.7.17.08.31.12.44.2.1.06.05.15-.02.2-.14.1-.28.19-.46.3Z"/>
      <path class="cls-2" d="M3.76,14.17c.12.17.21.35.17.56-.16-.07-.32-.15-.5-.23v-.13h.19c-.03-.08-.06-.13-.08-.19.06,0,.14-.01.22-.02Z"/>
      <path class="cls-2" d="M2.79,14.35c-.1.12-.35.01-.31.25-.15.05-.3.1-.42.15-.02-.15-.04-.31-.06-.49.05,0,.14-.02.22-.03,0,.07-.01.13-.02.19.06,0,.12-.01.18-.02.13-.02.25-.03.4-.05Z"/>
      <path class="cls-2" d="M3.87,13.94c-.54.04-1.09.08-1.64.12,1-.21,1.44-.2,1.64-.12Z"/>
      <path class="cls-2" d="M2.1,15.2c.1-.06.19-.13.31-.21.01.13.02.22.03.32-.13.02-.25.05-.34-.12Z"/>
      <path class="cls-2" d="M35.08,1.21c-.14-.16-.27-.31-.39-.45.26.05.45.26.39.45Z"/>
      <path class="cls-2" d="M30.18,12.98v.39c-.23-.22-.23-.26,0-.39Z"/>
      <path class="cls-2" d="M32.41,1.65c-.19.02-.3-.11-.4-.25.14.07.28.14.42.21,0,.01-.01.03-.02.04Z"/>
      <path class="cls-2" d="M32.66.24c-.19.05-.37.1-.55.15.11-.13.43-.22.55-.15Z"/>
      <path class="cls-1" d="M2.14,13.28s.05.03.06.06c0,.01-.04.07-.06.07-.12.03-.24.04-.36.06-.27.05-.54.11-.81.16-.03,0-.07-.01-.11-.02.03-.03.05-.07.08-.08.26-.07.52-.14.78-.2.13-.03.26-.04.42-.06Z"/>
      <path class="cls-1" d="M32.31,11.4c.11.02.22.03.33.05.03,0,.04.05.07.08-.03.02-.06.06-.08.06-.17,0-.33-.02-.5-.02-.02-.11-.04-.22-.06-.35.16,0,.31,0,.45,0,.03,0,.06.06.09.08-.03.02-.06.06-.09.06-.07,0-.13,0-.2,0,0,0,0,.02,0,.02Z"/>
      <path class="cls-1" d="M1.47,2.86c-.36.22-.72.44-1.09.66-.05-.04-.07-.11.02-.17.25-.15.51-.29.77-.43.09-.05.19-.08.28-.11,0,.02.01.03.02.05Z"/>
      <path class="cls-1" d="M2.36,12.99c-.39.09-.78.19-1.17.28,0-.03-.02-.06-.03-.09.36-.11.73-.22,1.09-.33.03,0,.07.05.11.07v.06Z"/>
      <path class="cls-1" d="M1.42,3.38c-.12.06-.24.12-.35.19-.14.09-.26.2-.4.3-.03.02-.07.02-.1.04-.01-.04-.04-.09-.03-.13.01-.04.05-.09.09-.11.22-.12.45-.23.67-.34.03-.01.07,0,.1.01,0,.01,0,.03.01.04Z"/>
      <path class="cls-1" d="M2.42,12.67c-.17.03-.33.07-.5.1-.13.03-.26.05-.39.07-.03,0-.07-.02-.11-.03.01-.03.02-.06.04-.07.15-.1.78-.18.94-.13,0,.02.01.04.02.06Z"/>
      <path class="cls-1" d="M2.51,12.36c-.07.02-.14.04-.21.05-.2.03-.39.06-.59.09-.03,0-.07-.03-.11-.04.03-.03.05-.07.08-.07.2-.05.41-.09.62-.12.07-.01.14.02.22.03,0,.02,0,.04,0,.07Z"/>
      <path class="cls-1" d="M2.57,11.7c-.3.06-.58.11-.86.17.13-.21.73-.33.86-.17Z"/>
      <path class="cls-1" d="M2.53,12.03c-.32.06-.6.11-.87.17l-.02-.06c.23-.13.49-.2.76-.22.03,0,.07.06.13.11Z"/>
      <path class="cls-1" d="M6.24,2.99c-.27.01-.54.02-.81.03-.01,0-.04-.05-.04-.06.02-.03.05-.07.08-.08.1-.01.21-.02.31-.02.15,0,.3.03.46.04,0,.03,0,.05,0,.08Z"/>
      <path class="cls-1" d="M32.09,11.08c-.04-.13,0-.19.12-.17.14.02.29.01.43.03.03,0,.06.06.09.09-.03.02-.07.05-.1.05-.18,0-.36,0-.54,0Z"/>
      <path class="cls-1" d="M34.4,2.9s-.02.06-.03.06c-.21.03-.43.05-.65.07-.02,0-.05-.04-.05-.07,0-.02.02-.06.03-.06.23,0,.46,0,.69,0Z"/>
      <path class="cls-1" d="M.7,4.19c.02-.06.03-.15.07-.17.15-.08.31-.14.46-.2.02,0,.05.02.08.04-.02.03-.04.07-.06.09-.17.09-.33.17-.5.25-.02,0-.03,0-.05,0Z"/>
      <path class="cls-1" d="M32.5,10.47c-.17-.01-.33-.01-.5-.03-.04,0-.07-.06-.1-.09.04-.02.08-.07.12-.07.13,0,.26.01.38.04.05.01.09.07.13.1-.01.02-.03.03-.04.05Z"/>
      <path class="cls-1" d="M34.26,3.26s-.09.05-.14.05c-.15.02-.3.04-.45.04-.04,0-.08-.04-.12-.07.04-.03.07-.08.11-.09.2-.01.4-.03.6.01,0,.02,0,.03,0,.05Z"/>
      <path class="cls-1" d="M32.58,10.75c-.16,0-.32,0-.48,0-.04,0-.07-.06-.1-.09.04-.02.08-.06.12-.06.12,0,.24,0,.35.03.05,0,.09.06.13.09,0,.01-.02.03-.02.04Z"/>
      <path class="cls-1" d="M31.58,2.6c-.08.02-.13.04-.18.04-.14-.01-.29-.04-.43-.06-.03,0-.06-.04-.09-.06.02-.03.05-.08.07-.08.2.02.42-.02.63.16Z"/>
      <path class="cls-1" d="M32.37,11.64c.1.03.21.06.3.09.02,0,.04.05.06.08-.03.01-.05.04-.08.03-.14,0-.28,0-.42-.02-.03,0-.08-.05-.08-.08,0-.03.04-.08.07-.09.04-.02.09,0,.14,0,0,0,0,0,0-.01Z"/>
      <path class="cls-1" d="M31.55,2.86c-.19-.02-.37-.05-.56-.07-.01,0-.03-.06-.03-.08.01-.03.05-.07.08-.07.19,0,.37.03.52.15,0,.03,0,.05-.01.08Z"/>
      <path class="cls-1" d="M5.49,3.3c.07-.18.5-.19.67,0h-.67Z"/>
      <path class="cls-1" d="M.75,4.56s.09-.06.14-.08c.12-.04.25-.08.37-.11.03,0,.06.02.09.04-.01.02-.02.06-.04.07-.13.06-.26.13-.39.18-.04.01-.09-.01-.13-.02-.01-.03-.02-.06-.03-.08Z"/>
      <path class="cls-1" d="M20.61,2.54c-.17,0-.34,0-.5,0-.04,0-.06-.08-.1-.13.04-.02.09-.06.12-.05.16.03.32.08.48.12,0,.02,0,.05,0,.07Z"/>
      <path class="cls-1" d="M1.89,11.49c.06-.13.3-.2.56-.19.03,0,.06.04.09.07,0,.02,0,.03-.01.05-.21.02-.41.05-.64.07Z"/>
      <path class="cls-1" d="M32.82,12.31c-.16,0-.29,0-.42,0-.02,0-.05-.05-.06-.09,0-.02.01-.07.03-.08.1-.07.36.02.44.17Z"/>
      <path class="cls-1" d="M30.06,11.66s.07.05.11.07c-.04.04-.07.09-.11.11-.08.03-.18.04-.27.05-.04,0-.08-.03-.11-.05.03-.04.05-.09.08-.1.09-.03.19-.05.31-.08Z"/>
      <path class="cls-1" d="M30.19,11.35s.03.09.03.13c0,.04-.03.09-.06.1-.11.03-.22.05-.33.06-.03,0-.07-.04-.1-.06.02-.03.04-.08.07-.09.11-.03.22-.05.33-.08.02-.02.04-.04.07-.06Z"/>
      <path class="cls-1" d="M1.42,4.7s.07.05.11.07c-.02.04-.04.09-.07.1-.08.04-.17.08-.26.09-.03,0-.08-.03-.11-.06,0,0,.02-.08.05-.09.09-.04.19-.07.29-.11Z"/>
      <path class="cls-1" d="M2.74,10.76c-.17.15-.37.12-.55.15-.02,0-.04-.03-.05-.05,0-.01,0-.04.02-.06.05-.05.49-.1.58-.05Z"/>
      <path class="cls-1" d="M32.49,11.85c.07.02.14.03.21.07.02.01.03.08.02.11,0,.02-.06.04-.09.04-.07,0-.15-.01-.22-.04-.04-.01-.07-.05-.11-.08.04-.03.08-.06.12-.09.01,0,.04,0,.06,0,0,0,0-.01,0-.02Z"/>
      <path class="cls-1" d="M2.61,11.09l-.6.08s-.01-.05-.02-.07c.08-.03.16-.06.25-.08.08-.02.16-.04.24-.05.05,0,.1.03.15.05,0,.02-.01.05-.02.07Z"/>
      <path class="cls-1" d="M30.83,2.24s.08-.04.13-.04c.14,0,.29,0,.43.02.02,0,.05.03.07.05-.02.02-.04.06-.06.06-.19,0-.38-.02-.57-.03,0-.02,0-.04,0-.06Z"/>
      <path class="cls-1" d="M2.78,10.47c-.14.14-.46.18-.54.06.24-.12.47-.15.54-.06Z"/>
      <path class="cls-1" d="M30,11.99c.04.19-.02.22-.35.23q-.03-.13.35-.23Z"/>
      <path class="cls-1" d="M6.09,3.54s-.07.07-.11.07c-.1.01-.2,0-.31,0-.03,0-.05-.04-.08-.06.02-.03.04-.07.06-.08.14,0,.28,0,.42,0,0,.02.01.04.02.06Z"/>
      <path class="cls-1" d="M30.07,11.28s-.09.04-.13.04c-.04,0-.08-.02-.13-.03.02-.05.03-.12.06-.13.1-.02.21-.02.32-.02.02,0,.04.04.04.06,0,.03-.01.07-.03.08-.04.02-.08.02-.12.03,0,0,0-.01,0-.02Z"/>
      <path class="cls-1" d="M33.72,3.83s.08-.01.11,0c.05.02.08.06.12.1-.04.02-.08.04-.12.05-.08.01-.16.03-.24.02-.04,0-.08-.05-.12-.08.04-.02.07-.05.11-.06.04-.01.09,0,.13-.01h0Z"/>
      <path class="cls-1" d="M29.86,11.02c0-.11,0-.2.14-.18.05,0,.11-.02.16-.02.04,0,.08.02.11.04-.02.04-.04.09-.07.1-.11.03-.22.04-.34.06Z"/>
      <path class="cls-1" d="M29.88,12.34c.05.06.08.1.1.13-.09.05-.18.11-.28.15-.02,0-.07-.04-.1-.07.09-.07.17-.13.28-.21Z"/>
      <path class="cls-1" d="M33.84,12.23c.15-.11.33-.08.45.08-.28.07-.35.06-.45-.08Z"/>
      <path class="cls-1" d="M33.56,3.44c.17.02.34.05.55.08-.23.14-.44.13-.56-.02v-.05Z"/>
      <path class="cls-1" d="M20.5,2.79c-.14-.02-.28-.03-.42-.05-.02,0-.05-.05-.05-.06.02-.03.05-.07.07-.07.14.02.27.06.41.09,0,.03-.01.06-.02.09Z"/>
      <path class="cls-1" d="M33.79,4.36c-.11,0-.19.02-.28.02-.03,0-.06-.06-.09-.09.03-.03.05-.07.08-.07.11-.02.24-.05.28.14Z"/>
      <path class="cls-1" d="M32.39,10.1c-.11.12-.33.16-.4.11-.02-.02-.04-.05-.04-.08,0-.02.03-.06.05-.06.12,0,.23.01.39.03Z"/>
      <path class="cls-1" d="M31.08,3.3q.29.05.34.21c-.24.03-.38-.05-.34-.21Z"/>
      <path class="cls-1" d="M6.14,4.22c-.11,0-.21,0-.31-.02-.03,0-.06-.03-.07-.05,0-.02.02-.07.02-.07.12.01.24.03.37.06,0,0,0,.05,0,.08Z"/>
      <path class="cls-1" d="M1.5,5.1s.07.06.11.09c-.03.03-.06.06-.09.09-.02.02-.06.04-.09.04-.05,0-.09-.02-.14-.04.02-.04.03-.09.06-.12.03-.03.09-.04.15-.06Z"/>
      <path class="cls-1" d="M33.95,12s-.1.03-.14.03c-.03,0-.06-.04-.1-.07.02-.03.04-.08.07-.08.05-.02.12-.03.17,0,.05.02.09.07.14.11-.04.02-.09.04-.13.06,0,0,0-.02-.01-.03Z"/>
      <path class="cls-1" d="M31.41,3.18s-.08.05-.1.04c-.09-.03-.18-.08-.26-.13.03-.03.08-.1.09-.1.09.03.18.08.27.13,0,.02,0,.04,0,.06Z"/>
      <path class="cls-1" d="M20.31,3.11c.11.06.19.11.28.15-.03.02-.06.06-.09.06-.1-.02-.19-.06-.28-.09.03-.04.05-.07.09-.12Z"/>
      <path class="cls-1" d="M29.91,10.66c.08-.03.16-.07.24-.08.03,0,.09.04.09.06,0,.14-.13.1-.22.13-.03,0-.07-.02-.11-.04,0-.02,0-.04,0-.07Z"/>
      <path class="cls-1" d="M30.14,10.37s.04-.01.07,0c.03,0,.06.03.07.05,0,.02-.02.06-.04.07-.08.02-.17.04-.25.05-.03,0-.07-.05-.07-.08,0-.02.03-.07.06-.08.04-.01.09,0,.17,0Z"/>
      <path class="cls-1" d="M30.03,10.29c.02-.22.22-.14.32-.22.06.15-.04.22-.32.22Z"/>
      <path class="cls-1" d="M34.54,13.05c-.2.06-.36.01-.38-.16.14.04.27.07.4.1,0,.02-.01.04-.02.06Z"/>
      <path class="cls-1" d="M31.3,3.82c-.09-.02-.17-.03-.25-.05-.02,0-.04-.05-.04-.07,0-.03.03-.07.06-.08.11-.04.22.06.23.2Z"/>
      <path class="cls-1" d="M5.98,3.81c-.07.16-.16.11-.24.07-.04-.02-.05-.09-.08-.13.01-.01.03-.03.04-.04.09.03.18.07.28.1Z"/>
      <path class="cls-1" d="M6.3,5.47c-.12.01-.22.02-.32.03,0-.13.06-.17.15-.16.07,0,.17-.02.17.13Z"/>
      <path class="cls-1" d="M34.33,13.25c.11.06.22.12.32.18l-.02.07c-.09-.02-.19-.04-.28-.07-.04-.02-.05-.08-.08-.13.02-.01.03-.03.05-.04Z"/>
      <path class="cls-1" d="M5.78,4.51c.05-.23.17-.17.26-.13.03.01.04.06.05.1-.1,0-.2.02-.32.03Z"/>
      <path class="cls-1" d="M31.98,9.87c.11,0,.18,0,.25,0,.03,0,.06.02.07.05.01.02,0,.07,0,.07-.08,0-.17,0-.25,0-.03,0-.04-.07-.07-.11Z"/>
      <path class="cls-1" d="M31.27,4.12c-.09-.03-.17-.07-.26-.1.02-.04.04-.08.06-.12.08.04.16.09.24.13-.01.03-.03.06-.04.09Z"/>
      <path class="cls-1" d="M5.88,4.63c.09.06.17.11.25.16-.04.02-.08.05-.12.05-.09,0-.22,0-.13-.21Z"/>
      <path class="cls-1" d="M31.33,4.43c-.07-.05-.15-.1-.22-.15.02-.02.04-.07.05-.07.09.02.21.02.21.16-.01.02-.03.04-.04.06Z"/>
      <path class="cls-1" d="M20.49,3.05c-.19.02-.26-.02-.26-.19.1.05.19.09.28.14,0,.02-.01.03-.02.05Z"/>
      <path class="cls-1" d="M1.6,5.62c-.07,0-.13.02-.19.02-.02,0-.02-.09-.03-.18.11.05.18.07.25.1,0,.02-.01.04-.02.06Z"/>
      <path class="cls-1" d="M1.63,5.88s.08.07.12.1c-.05.03-.09.07-.14.09-.02,0-.06-.06-.09-.09.03-.03.06-.06.11-.1Z"/>
      <path class="cls-1" d="M32.89.83c-.17.18-.42.14-.52-.1.18.03.34.06.52.1Z"/>
    </g>
  </g>
</svg>